#!OML:ASF E:\CV Data\Top Level 1\Subject 1\Session 1\player.ASF
:FULLY-SPECIFIED
:DEGREES
570
root 3.83395 17.0043 -3.99625 8.03693 -43.0138 -4.67173
lowerback 12.9785 -5.61463 3.50617
upperback 1.9119 -6.74099 5.61309
thorax -4.93296 -3.39062 5.10904
lowerneck -12.3842 9.3979 -4.62473
upperneck 17.8524 12.0945 8.45129
head 6.62651 6.24758 4.50859
rclavicle 8.60738e-014 -1.59028e-014
rhumerus 21.5098 -51.6778 7.64552
rradius 72.2707
rwrist -37.6404
rhand -25.474 1.24432
rfingers 7.12502
rthumb 1.05378 -28.7328
lclavicle 8.60738e-014 -1.59028e-014
lhumerus -5.94604 -16.5035 5.29975
lradius 23.485
lwrist -10.1492
lhand -17.7436 17.7113
lfingers 7.12502
lthumb 8.51775 47.5195
rfemur -1.74511 2.44757 18.5155
rtibia 28.7409
rfoot -30.2056 -6.67228
rtoes -11.6404
lfemur -41.5497 12.8628 -3.59976
ltibia 22.7994
lfoot -12.3094 28.734
ltoes -13.4284
571
root 3.83702 16.9729 -3.8967 8.25507 -43.1021 -4.71571
lowerback 13.2869 -5.62768 3.52225
upperback 2.06324 -6.74588 5.54089
thorax -4.95166 -3.39338 5.0491
lowerneck -12.3868 9.47181 -4.71234
upperneck 17.5287 12.228 8.43058
head 6.50961 6.30959 4.50591
rclavicle 7.31528e-014 -3.97569e-015
rhumerus 18.5043 -52.7623 9.46154
rradius 71.2812
rwrist -38.7459
rhand -25.5781 0.426208
rfingers 7.12502
rthumb 0.953225 -29.5514
lclavicle 7.31528e-014 -3.97569e-015
lhumerus -7.79421 -16.768 4.94115
lradius 23.506
lwrist -9.79019
lhand -17.7268 17.897
lfingers 7.12502
lthumb 8.53397 47.7045
rfemur -1.82877 2.37926 18.2657
rtibia 29.021
rfoot -30.4873 -6.69512
rtoes -11.8699
lfemur -41.4554 12.5207 -2.9775
ltibia 22.4483
lfoot -12.0559 29.5407
ltoes -13.371
572
root 3.84037 16.9396 -3.79501 8.48911 -43.1747 -4.7779
lowerback 13.595 -5.63667 3.55331
upperback 2.22246 -6.74376 5.47116
thorax -4.96323 -3.39306 4.98165
lowerneck -12.3945 9.53449 -4.78488
upperneck 17.1775 12.3504 8.37532
head 6.38946 6.36471 4.48845
rclavicle 1.11319e-013 2.8625e-014
rhumerus 15.3063 -53.7099 11.4921
rradius 70.2022
rwrist -39.844
rhand -25.7783 -0.444897
rfingers 7.12502
rthumb 0.759917 -30.4233
lclavicle 1.11319e-013 2.8625e-014
lhumerus -9.68542 -17.0099 4.66742
lradius 23.5171
lwrist -9.39505
lhand -17.7259 18.1044
lfingers 7.12502
lthumb 8.53485 47.9119
rfemur -1.91759 2.29867 18.0242
rtibia 29.3195
rfoot -30.7818 -6.7235
rtoes -12.1205
lfemur -41.3738 12.2012 -2.37179
ltibia 22.1025
lfoot -11.7735 30.3147
ltoes -13.2734
573
root 3.844 16.9042 -3.69126 8.74348 -43.2312 -4.85579
lowerback 13.8975 -5.63709 3.59855
upperback 2.38775 -6.72892 5.40409
thorax -4.96678 -3.38681 4.90576
lowerneck -12.423 9.58912 -4.84949
upperneck 16.8172 12.4628 8.30918
head 6.27234 6.41518 4.46677
rclavicle 2.36554e-014 7.15625e-015
rhumerus 11.9407 -54.5029 13.6892
rradius 69.0184
rwrist -40.8461
rhand -26.0253 -1.22124
rfingers 7.12502
rthumb 0.521356 -31.2003
lclavicle 2.36554e-014 7.15625e-015
lhumerus -11.5961 -17.2245 4.47959
lradius 23.5073
lwrist -8.99056
lhand -17.708 18.3768
lfingers 7.12502
lthumb 8.55218 48.1836
rfemur -2.01841 2.20614 17.7904
rtibia 29.6363
rfoot -31.0867 -6.77305
rtoes -12.4252
lfemur -41.3686 12.3571 -2.05303
ltibia 21.7602
lfoot -11.4343 30.5504
ltoes -13.1924
574
root 3.84787 16.8669 -3.58504 9.01269 -43.2766 -4.94481
lowerback 14.1935 -5.62651 3.65596
upperback 2.5616 -6.69868 5.33886
thorax -4.95904 -3.37332 4.82073
lowerneck -12.4648 9.63416 -4.90719
upperneck 16.4367 12.5642 8.22746
head 6.15384 6.46011 4.43854
rclavicle 3.26007e-014 1.51076e-014
rhumerus 8.41842 -55.1359 16.0142
rradius 67.7588
rwrist -41.7383
rhand -26.3112 -1.93632
rfingers 7.12502
rthumb 0.245197 -31.9159
lclavicle 3.26007e-014 1.51076e-014
lhumerus -13.52 -17.4235 4.38047
lradius 23.4745
lwrist -8.5823
lhand -17.665 18.6711
lfingers 7.12502
lthumb 8.59366 48.4762
rfemur -2.12781 2.10294 17.5585
rtibia 29.9702
rfoot -31.4027 -6.84692
rtoes -12.8119
lfemur -41.3725 12.5002 -1.73768
ltibia 21.4185
lfoot -11.0623 30.8092
ltoes -13.1069
